<?xml version="1.0" encoding="UTF-8"?>
<!DOCTYPE svg PUBLIC "-//W3C//DTD SVG 1.1//EN" "http://www.w3.org/Graphics/SVG/1.1/DTD/svg11.dtd">
<!-- Creator: CorelDRAW X6 -->
<svg xmlns="http://www.w3.org/2000/svg" xml:space="preserve" width="4800px" height="2700px" version="1.1" style="shape-rendering:geometricPrecision; text-rendering:geometricPrecision; image-rendering:optimizeQuality; fill-rule:evenodd; clip-rule:evenodd"
viewBox="0 0 4800 2700"
 xmlns:xlink="http://www.w3.org/1999/xlink">
 <defs>
  <style type="text/css">
   <![CDATA[
    .fil15 {fill:#B9CA61}
    .fil8 {fill:#D0E2BC}
    .fil14 {fill:#DCEFF2}
    .fil5 {fill:#E5C6D8}
    .fil7 {fill:#E6B0A1}
    .fil9 {fill:#E6EBB1}
    .fil11 {fill:#EEB5C6}
    .fil12 {fill:#F3E282}
    .fil22 {fill:#F9CCD7}
    .fil6 {fill:#FCD086}
    .fil18 {fill:#FCFCFC}
    .fil21 {fill:#FDFCEC}
    .fil17 {fill:#FDFDFB}
    .fil13 {fill:#FEF4F4}
    .fil20 {fill:#FEFEF2}
    .fil10 {fill:#FEFEFC}
    .fil2 {fill:#FFD0A1}
    .fil1 {fill:#FFEB94}
    .fil16 {fill:#FFFDFE}
    .fil19 {fill:#FFFEF6}
    .fil23 {fill:#B9D7F1}
    .fil24 {fill:#C2E2F6}
    .fil3 {fill:#C9DEAB}
    .fil4 {fill:#DEDFDF}
    .fil0 {fill:url(#id0)}
   ]]>
  </style>
  <linearGradient id="id0" gradientUnits="userSpaceOnUse" x1="2400" y1="0" x2="2400" y2="2700">
   <stop offset="0" style="stop-color:#DFF2FC"/>
   <stop offset="0.25098" style="stop-color:#ECF7FD"/>
   <stop offset="1" style="stop-color:#F9FCFE"/>
  </linearGradient>
 </defs>
 <g id="Layer_x0020_1">
  <metadata id="CorelCorpID_0Corel-Layer"/>
  <g id="_714739728">
   <rect class="fil0" width="4800" height="2700"/>
   <g>
    <g>
     <g>
      <path class="fil1" d="M3025 1176c2,-21 -6,-39 -19,-54 -10,-11 -27,-23 -49,-24 -42,-3 -76,29 -78,68 -3,42 29,76 68,79 21,2 42,-6 57,-21 13,-13 20,-28 22,-47z"/>
      <g>
       <path class="fil2" d="M2905 1084c-3,-2 -5,-3 -7,-5 -1,-1 -2,-1 -4,-2 -2,-1 -6,-5 -8,-1 -1,1 0,3 0,5 1,3 1,6 2,10 4,21 7,22 -7,19l-20 -4c-2,0 -3,-1 -5,0 -1,1 -2,3 -1,4 3,5 18,27 19,29 -8,1 -19,4 -28,6 -2,0 -7,1 -8,3 -1,1 -1,3 0,4l23 15c3,2 6,2 7,-2 2,-23 12,-44 30,-58l6 -5c9,-6 20,-11 32,-13 6,-1 12,0 13,-4 0,-2 -1,-3 -2,-4 -3,-4 -6,-9 -9,-14 -1,-2 -3,-4 -4,-7 -1,-2 -3,-6 -6,-3 -2,1 -4,15 -4,18 -1,6 -3,13 -4,18l-15 -9z"/>
       <path class="fil2" d="M3030 1203c1,0 1,0 2,-1l16 -3c3,-1 17,-3 18,-5 3,-3 -2,-5 -3,-7l-20 -13c-2,-2 -6,-3 -7,2 0,3 -1,6 -1,10 -2,12 -6,22 -13,31 -4,6 -6,8 -10,12 -12,12 -27,20 -44,23 -7,1 -12,0 -13,4 0,2 1,3 1,4 3,4 6,9 9,14 1,2 3,4 4,7 1,1 3,6 6,3 2,-1 4,-15 4,-18 1,-6 3,-12 4,-18 2,1 12,8 15,9 3,2 5,3 7,5l7 5c2,1 4,0 5,-1 1,-2 0,-3 0,-5l-4 -20c-3,-12 -2,-12 9,-9l20 4c2,0 3,1 5,0 4,-2 -1,-8 -4,-12l-14 -22z"/>
       <path class="fil2" d="M3029 1139c1,-2 3,-5 5,-7l14 -22c1,-2 0,-3 -1,-4 -1,-1 -3,-1 -5,0l-20 4c-14,3 -12,2 -7,-19 1,-2 3,-13 2,-15 -1,-1 -3,-2 -4,-1l-22 14c-2,1 -6,4 -8,5 -1,-6 -3,-12 -4,-18 -2,-9 -3,-27 -11,-15l-13 20c-5,8 4,7 11,8 15,3 27,9 38,18 15,12 25,29 29,48 1,6 0,17 8,12l23 -15c1,-1 1,-3 0,-4 -1,-2 -14,-4 -18,-5 -6,-1 -13,-3 -18,-4z"/>
       <path class="fil2" d="M2920 1248c1,6 3,12 4,18 1,3 3,16 5,18 3,3 5,-2 7,-4 2,-2 3,-4 4,-7 3,-5 6,-9 9,-13 2,-3 2,-6 -2,-7 -9,-1 -18,-3 -27,-6 -7,-3 -18,-10 -24,-15 -1,-1 -2,-2 -3,-3 -1,-1 -2,-2 -3,-3 -10,-12 -17,-25 -20,-41 -1,-6 0,-16 -8,-11 -4,3 -9,6 -14,9 -2,2 -4,3 -7,4 -2,1 -6,4 -3,6 2,2 33,7 36,8 -1,2 -3,5 -5,7l-14 22c-1,2 0,4 1,4 2,1 12,-2 15,-2 3,-1 7,-1 10,-2 3,-1 8,-3 10,0 2,2 0,7 -1,10 -1,3 -1,7 -2,10 -1,4 -3,12 -2,15 3,3 8,-2 12,-4 2,-2 5,-3 7,-5 3,-2 12,-8 15,-9z"/>
      </g>
     </g>
     <g>
      <path class="fil3" d="M2982 1243c-4,-2 -2,0 -4,-4 -5,-5 -3,-6 -4,-13l-3 -4c-26,-1 -7,28 -1,33 6,4 13,8 22,8 13,0 18,-7 22,-8 2,-3 0,-2 4,-4l1 -2 3 -4c2,-8 5,-13 3,-23 -2,-7 -7,-15 -10,-18 -4,-2 -2,-1 -4,-4 -8,-2 -9,-5 -19,-6 -21,-2 -123,0 -155,0 -10,0 -17,-1 -20,8 3,11 13,8 25,8l135 0c11,0 22,-2 28,6 14,16 -4,38 -24,27z"/>
      <path class="fil3" d="M2955 1135l1 -3 4 -1c29,-6 34,34 5,36 -14,1 -137,-1 -143,1 -6,2 -7,9 -2,13 5,4 147,4 158,0 18,-7 31,-34 15,-52 -35,-41 -77,18 -57,28 14,7 8,-13 19,-21z"/>
      <path class="fil3" d="M2930 1261c-2,5 -1,3 -5,5 -3,6 -14,7 -21,4 -8,-4 -9,-11 -10,-20 -3,-1 -2,-1 -3,-4 -3,0 -3,-1 -7,0 -14,4 -3,28 9,36 40,25 76,-32 37,-57l-5 -3c-16,-6 -63,-3 -86,-3 -12,0 -18,-2 -22,8 3,12 17,9 30,9 12,0 25,0 37,0 24,0 52,-6 46,25z"/>
     </g>
    </g>
    <g>
     <path class="fil4" d="M2760 2697l-269 0c-2,-16 -1,-38 0,-55l0 -135c0,-21 3,-20 21,-34l47 -35c3,-2 5,-3 8,-5l26 -16c5,-3 2,-3 8,-6l15 -9c4,-2 6,-5 11,-7 9,-4 12,2 22,9 2,2 2,2 4,3l93 72c21,17 16,5 16,53 0,18 0,36 0,54 0,21 1,96 -1,110zm-13 3l-31 0c-10,0 -19,0 -28,0 -20,0 -43,0 -67,0l-122 0c-12,0 -24,-1 -33,-1l0 -220 32 -26c7,-6 28,-21 31,-27 -12,0 -25,0 -37,0 -9,0 -13,-3 -13,6 0,4 2,13 -2,15 2,-3 0,3 1,-2 1,-3 2,-14 -2,-20l-355 2c0,32 2,264 -2,272l-24 0c4,-9 2,-130 2,-149 0,-21 -4,-136 1,-147 8,-4 121,3 130,-2 3,-3 2,-73 2,-87 0,-11 -1,-9 -3,-10 1,-12 3,-19 1,-31 -5,0 -37,22 -43,27l-126 83 0 318 -25 0 0 -90 -9 4 0 86 -18 0 0 -85c-4,-3 -11,-5 -17,-9 -8,-6 -7,-10 -12,-16l-13 3c-2,11 -1,90 -1,107l-25 0c-1,-19 3,-97 -1,-107 -3,-2 -9,-3 -14,-2 -9,18 -11,14 -29,23l0 86 -20 0 0 -86c-5,-4 -11,-5 -17,-9 -6,-4 -8,-8 -12,-15 -6,0 -10,1 -15,3l0 107 -25 0c0,-15 2,-100 -1,-106 -3,-4 -11,-3 -15,-3 -6,12 -13,18 -29,23l0 86 -19 0c2,-23 1,-53 0,-76 0,-8 0,-10 -7,-13 -22,-9 -21,-23 -25,-31l0 -16c2,-4 3,-12 5,-18 14,-34 29,-29 35,-35 2,-2 18,-109 66,-110 23,0 39,26 46,43 5,11 9,21 12,32 2,7 6,31 9,34 3,-3 4,-13 5,-18 11,-61 62,-143 108,-48 4,9 9,20 12,32 10,37 1,33 26,41 0,-20 -3,-137 1,-147 2,-6 41,-28 49,-33l49 -32c9,-6 16,-11 25,-17 24,-15 49,-31 73,-48 0,-8 -1,-18 1,-26 1,-4 0,-2 1,-3 5,-5 197,2 221,-2l0 -43 194 0c0,-41 0,-83 0,-124 0,-21 4,-36 -9,-53 -4,-5 -24,-29 -24,-36l34 0c0,-4 0,-8 1,-12 2,-5 3,0 3,-9l0 -73c-9,-7 -6,-11 -9,-23 -3,-13 -9,-16 -7,-26l13 -52 14 -1 12 -32c17,-39 33,-43 60,-69 7,-7 16,-16 18,-26 2,-6 5,-11 5,-16 1,-10 0,-11 2,-19 1,-6 4,-12 5,-16 1,-5 0,-15 1,-21 0,-14 0,-28 2,-41 11,-1 41,-3 49,2 1,13 1,30 1,43 0,25 1,15 6,37 2,8 0,13 1,18 1,3 2,4 3,7 5,14 4,16 15,28 2,2 3,3 5,5l24 20c34,26 36,57 48,81l12 1c1,7 4,16 6,23 8,33 11,27 3,45 -4,9 -10,35 -10,47l0 57c0,13 4,9 4,24l29 0c0,7 -19,35 -23,42 -6,10 -6,12 -6,27 0,40 -2,133 0,163 8,5 15,10 23,15 6,4 21,13 23,16 3,8 1,112 1,131 0,22 0,44 0,66 0,17 -2,48 1,64 20,13 48,32 70,40 3,-22 5,-36 11,-57 5,-16 12,-33 22,-47 29,-40 57,-24 77,13 18,33 19,72 27,76 6,3 7,1 12,5 16,12 26,37 24,60 -3,33 -28,32 -31,37 -3,5 0,85 -1,97l-21 1 0 -96c0,0 0,-3 -6,-6 -9,-5 -14,-11 -20,-21 -6,1 -11,1 -12,6 -3,10 -1,105 -1,117 -10,-2 -17,0 -26,-2l0 -118c-5,-1 -14,-5 -19,-7 -7,-4 -9,-9 -17,-10l0 135 -25 0 0 -156c-1,-3 -74,-46 -84,-52 -3,-2 -6,-3 -9,-6 -13,-9 -21,-1 -43,9 -3,1 -19,7 -18,11 -7,-2 -11,2 -17,5l-39 15c-7,2 0,2 -13,4 0,22 -1,159 1,171l-21 0c1,-41 -1,-82 0,-122 0,-20 1,-42 0,-62 -1,-13 -3,-16 -9,-21l-54 -38c-14,-9 -21,-16 -35,-26 -11,-8 -23,-17 -35,-26 -36,-28 -35,-28 -46,-19 -6,5 -22,16 -24,23 13,-2 24,-24 44,-12 4,2 5,4 8,7l26 20c13,7 5,4 17,13 6,5 9,9 17,14l17 13c40,31 37,21 37,55 0,20 0,40 0,61 0,39 2,84 0,122 -5,1 -10,1 -16,1zm-888 -121c3,-8 10,-8 18,-27l3 -9c1,-2 1,-1 2,-3 7,35 27,32 20,43 -6,9 -12,12 -23,10 -13,-2 -14,-5 -20,-15zm156 -48c16,2 36,67 -5,63 -10,-1 -22,-12 -17,-18 3,-4 11,-9 17,-23 3,-7 2,-16 5,-22zm-267 2c6,45 31,38 19,54 -12,16 -44,8 -39,-22 1,-8 6,-20 11,-27 3,-4 4,-5 10,-5zm1457 34c-7,30 -51,12 -41,-2 9,-13 14,-13 19,-33 2,-10 4,-17 11,-5 6,9 14,26 11,40zm-1425 -30c-5,-20 11,-67 18,-81 3,-6 13,-32 23,-20 11,12 44,89 22,114 -7,9 -20,16 -37,11 -12,-3 -23,-12 -26,-24zm132 -5c-3,-20 13,-66 21,-80 18,-36 26,-18 40,22 7,21 21,62 1,79 -22,18 -57,10 -61,-21zm1241 -8c-5,29 -44,37 -61,16 -17,-21 -4,-57 4,-81 4,-11 10,-26 17,-34 7,-8 9,-4 14,2 14,18 32,70 27,97zm-430 -445c19,12 38,24 58,37l146 94c9,6 20,12 29,19 2,4 1,222 0,231 -14,-2 -5,-12 -28,-1 -7,3 -20,11 -27,11 -2,5 0,2 -6,5 -17,7 -12,9 -21,9 -3,3 -9,5 -14,6 -5,4 -28,16 -34,16 -2,-8 2,-11 -3,-17 -5,-3 -9,-6 -12,-11 -6,-2 -1,0 -4,-2 -1,-1 -2,-1 -3,-2l-10 -7c-1,-1 -2,-1 -3,-2 -3,-2 -4,-3 -6,-5 -6,-2 -27,-18 -29,-21l-28 -17c-5,-4 -1,-3 -8,-5 -4,-23 0,-60 -1,-85 -1,-51 -1,-117 0,-168 0,-18 -1,-71 1,-84l3 0zm-394 286l0 37 -27 0 -1 -38 27 0zm295 -44l41 0c3,15 1,28 0,43 -9,0 -16,-2 -23,-7 -9,-6 -7,-8 -19,-8l0 -28zm-168 81l-27 0 0 -37 -1 39c-16,0 -89,2 -96,-1 -3,-9 1,-31 -2,-37 -6,-3 -20,-2 -28,-1l0 39 -46 0c-6,-7 -4,-30 -4,-40 0,-15 0,-29 0,-44l0 -66c0,-9 -5,-18 3,-19l71 0c32,0 222,-1 225,2 3,5 2,152 0,167l-95 0zm23 -211c18,-2 37,0 53,-1 6,0 4,-2 11,-2l42 0c35,0 76,-2 110,0l-1 203c-5,1 -6,-1 -10,-4l-24 -18 5 -3c2,-1 3,-2 3,-4l-1 -43 -45 1c-3,6 -1,25 -1,33 -1,3 -39,34 -44,36 0,-29 -1,-60 -1,-89 0,-15 0,-30 0,-46 0,-17 1,-27 -1,-42 -1,-6 -78,1 -97,-3l0 -18zm404 -40c-7,-1 -12,-6 -17,-9 -16,-11 -19,-8 -20,-20l0 -38c0,-16 -1,-94 1,-103l35 0c4,12 3,123 3,151 0,6 1,15 -2,19zm-104 -223c12,0 13,-3 22,0 24,9 21,12 21,52l0 75c0,46 7,65 -27,43 -10,-7 -35,-20 -36,-27 -2,-8 -1,-71 -1,-80 0,-17 -4,-50 8,-56 10,-5 6,3 12,-6zm-83 119c-1,-13 0,-32 0,-45 0,-25 -5,-22 23,-22 10,0 14,-2 15,8l0 66c-10,1 -9,-4 -16,-6 -4,-1 -16,0 -21,0zm-29 -263c9,-1 13,2 15,-5 5,-15 1,-17 15,-45 11,-23 17,-29 36,-44 15,-12 28,-25 38,-42 3,-5 11,-22 11,-28 1,-17 6,-4 3,-16 -2,-11 -1,-7 2,-15 11,6 4,10 4,18 0,7 2,1 4,9 1,5 -1,5 1,10l4 8c1,3 2,5 3,8 8,18 29,39 45,51 23,16 37,49 43,77 3,11 0,11 11,13 6,1 6,4 9,15 2,9 0,25 -3,29 -3,4 -3,1 -7,4l0 110c0,32 1,16 3,28 1,4 0,4 2,9 3,1 2,0 4,1l4 2c-2,7 -7,10 -9,18 -1,7 -1,18 -1,26l-1 138c-5,1 -13,-6 -18,-8 0,-31 1,-155 -1,-178 -8,-1 -37,-3 -41,2 -3,4 -2,125 -2,146 -6,-1 -15,-6 -18,-10l1 -151c0,-20 1,-31 -15,-39 -13,-7 -32,-5 -43,2 -16,9 -13,21 -13,40l0 102c-10,-2 -11,-7 -21,-11 2,-14 1,-59 1,-81l-42 0 1 188 -22 0 0 -145c0,-44 -7,-26 -10,-41l9 -2c1,-24 4,0 4,-34 0,-29 2,-100 -1,-115 -9,-1 -8,1 -10,-7 -1,-4 -3,-11 -3,-14 0,-2 4,-24 5,-26z"/>
     <path class="fil5" d="M2258 2612c12,0 61,-3 68,1 3,3 2,8 1,15l-69 0 0 -16zm-115 0l69 0 1 16 -70 0 0 -16zm115 -74c8,-2 60,-2 70,0l0 16 -70 0 0 -15zm-78 16l-37 0 0 -16 69 0c1,3 1,8 1,11 -1,5 -2,5 -7,5 -8,0 -17,0 -25,0zm78 -91c7,-2 59,-1 70,-1l0 16 -69 -1 0 -15zm-114 -1l69 0c0,3 0,6 0,9 0,1 0,2 0,4 -1,4 0,2 -1,3l-68 0 0 -16zm-24 236l319 0 0 -70 -66 0c-1,-6 -1,-10 0,-16 9,0 56,1 62,0 3,-1 4,3 4,-12l0 -46 -66 -1 0 -16 66 -1c4,-16 -2,-40 3,-59l-68 0c-1,-11 0,-14 3,-15 2,0 3,0 5,0 11,0 57,-1 61,0l0 15c6,-3 31,-26 35,-31 2,-3 0,3 1,-2 1,-3 2,-14 -2,-20l-355 2c0,32 2,264 -2,272z"/>
     <path class="fil6" d="M2596 2502c-1,-1 0,1 -1,-3 -1,-6 -2,-13 4,-15 5,-2 13,-1 18,-1 2,18 2,22 -15,21 -1,0 -1,0 -2,0 0,0 -1,0 -1,0 0,0 -1,0 -1,0 0,0 -1,0 -1,0zm62 -16c1,3 2,7 1,11 -2,7 -8,7 -13,6 -9,-3 -10,-26 12,-16zm-61 -28c-2,-4 -3,-14 0,-17 3,-3 12,-2 18,-1 0,3 1,7 1,10 0,2 0,3 -1,5 -2,8 -17,4 -19,3zm45 -2c-4,-3 -3,-11 -2,-16 12,-1 23,-2 20,13 -1,3 0,1 -1,3l-4 2c-3,1 -10,1 -12,-1zm119 241c2,-14 0,-89 1,-110 0,-18 0,-36 0,-54 0,-47 5,-36 -16,-53l-93 -72c-2,-2 -2,-2 -4,-3 -10,-7 -12,-14 -22,-9 -5,2 -7,5 -11,7l-15 9c-6,3 -3,3 -8,6l-26 16c-2,2 -4,3 -8,5l-47 35c-18,14 -21,13 -21,34l0 135c0,16 -1,39 0,55l269 0z"/>
     <path class="fil7" d="M2781 1739c43,-10 82,28 87,62 7,45 -26,82 -63,88 -25,4 -46,-4 -60,-16 -34,-28 -39,-74 -13,-107 12,-16 25,-23 48,-28zm-113 43c-1,2 -5,24 -5,26 0,2 2,10 3,14 2,8 1,6 10,7 3,15 1,86 1,115 0,34 -3,9 -4,34l-9 2c3,15 10,-3 10,41l0 145 22 0 -1 -188 42 0c0,21 2,67 -1,81 9,3 11,9 21,11l0 -102c0,-19 -3,-30 13,-40 12,-7 30,-8 43,-2 16,8 15,19 15,39l-1 151c3,3 12,8 18,10 0,-21 -2,-142 2,-146 4,-5 33,-3 41,-2 2,23 1,147 1,178 4,2 13,9 18,8l1 -138c0,-7 -1,-19 1,-26 2,-8 7,-11 9,-18l-4 -2c-2,-1 -1,0 -4,-1 -2,-5 -1,-4 -2,-9 -2,-12 -3,4 -3,-28l0 -110c5,-3 4,0 7,-4 3,-5 6,-20 3,-29 -3,-12 -3,-14 -9,-15 -11,-2 -8,-2 -11,-13 -6,-28 -20,-61 -43,-77 -16,-11 -38,-32 -45,-51 -1,-3 -2,-5 -3,-8l-4 -8c-2,-5 -1,-6 -1,-10 -1,-8 -3,-2 -4,-9 0,-8 6,-13 -4,-18 -3,8 -5,4 -2,15 2,12 -2,-2 -3,16 0,6 -8,23 -11,28 -10,17 -23,30 -38,42 -18,15 -25,21 -36,44 -13,28 -9,30 -15,45 -3,8 -7,4 -15,5z"/>
     <path class="fil8" d="M2429 2263l28 0 0 56 -28 0 0 -56zm-99 0c1,6 2,53 -1,56 -2,2 -24,2 -26,0 -2,-2 -2,-54 0,-55 2,-2 22,-1 27,-1zm0 100c4,6 0,27 2,37 7,3 81,1 96,1l1 -39 27 0 0 38 95 0c2,-14 3,-161 0,-167 -3,-2 -193,-2 -225,-2l-71 0c-8,1 -4,10 -3,19l0 66c0,15 0,29 0,44 0,10 -2,33 4,40l46 0 0 -39c8,-2 22,-3 28,1z"/>
     <path class="fil9" d="M2891 2504c-7,-2 -11,2 -17,5l-39 15c-7,2 0,2 -13,4 0,22 -1,159 1,171l191 0 0 -161c-13,-8 -36,-14 -45,-18 -9,-5 -33,-13 -45,-17 -10,-4 -23,2 -32,2z"/>
     <path class="fil10" d="M2756 2436c2,4 23,19 29,21l1 -309c5,0 10,5 14,8 5,3 10,5 11,11 2,10 0,31 0,43 0,29 0,59 0,88 0,58 -2,120 0,177 3,4 7,8 12,11 5,-1 3,-5 3,-18 -2,-70 -1,-145 0,-216 0,-26 -1,-53 0,-78 6,1 28,16 35,20l0 293c4,-1 11,-3 14,-6 5,-44 -1,-221 1,-276 6,1 33,19 41,24 10,7 9,5 10,10 1,7 0,158 0,168 0,40 5,39 -14,50 -6,3 -6,5 -11,9 7,0 21,-8 27,-11 23,-11 14,-1 28,1 0,-9 2,-227 0,-231 -9,-7 -20,-13 -29,-19l-146 -94c-20,-13 -40,-25 -58,-37 -4,1 -3,-5 -3,13 0,5 0,9 1,13 8,9 27,16 34,24l1 307z"/>
     <path class="fil11" d="M2625 2235c7,0 14,0 21,0 4,0 18,-1 21,2 0,0 7,37 -3,41 -3,1 -32,2 -35,-1 -2,-1 -1,0 -2,-3l-1 -16c0,-7 0,-15 0,-22zm-145 -45l0 18c19,4 97,-3 97,3 2,16 1,25 1,42 0,15 0,30 0,46 0,29 0,59 1,89 6,-1 44,-33 44,-36 0,-8 -2,-27 1,-33l45 -1 1 43c-1,2 -1,2 -3,4l-5 3 24 18c4,3 5,5 10,4l1 -203c-34,-2 -75,0 -110,0l-42 0c-7,0 -5,2 -11,2 -17,1 -35,-2 -53,1z"/>
     <path class="fil12" d="M2096 2699c4,-9 2,-130 2,-149 0,-21 -4,-136 1,-147 8,-4 121,3 130,-2 3,-3 2,-73 2,-87 0,-11 -1,-9 -3,-10 -11,1 -8,5 -21,10 -23,10 -22,14 -30,18 -10,5 -17,12 -28,17 -6,3 -5,4 -9,7 -3,2 -6,3 -10,5 -4,3 -4,4 -9,7l-15 9c-7,5 -5,6 -14,9 -6,2 -10,7 -18,12 -2,23 0,52 0,76l0 150c0,87 -8,74 23,75z"/>
     <path class="fil13" d="M2801 1841c0,10 1,21 -1,30l-25 1c-1,-13 1,-30 0,-42 0,-4 -13,-21 2,-31 11,-7 7,3 29,-12 7,-5 18,-13 25,-16 3,2 12,15 12,19 0,5 -13,12 -17,14 -20,13 -26,14 -26,37zm-21 -102c-23,5 -36,12 -48,28 -26,33 -21,79 13,107 14,11 35,19 60,16 36,-6 70,-43 63,-88 -6,-35 -44,-72 -87,-62z"/>
     <path class="fil14" d="M2874 2482c9,0 5,-2 21,-9 6,-3 4,0 6,-5 4,-4 5,-5 11,-9 19,-11 14,-11 14,-50 0,-10 1,-162 0,-168 -1,-5 0,-4 -10,-10 -8,-5 -34,-23 -41,-24 -1,55 4,231 -1,276z"/>
     <path class="fil14" d="M2762 2439l-1 -307c-7,-9 -27,-16 -34,-24 -1,-4 -1,-8 -1,-13 -1,-18 -1,-12 3,-13l-3 0c-2,12 0,66 -1,84 -1,51 0,117 0,168 0,25 -3,62 1,85 7,2 3,1 8,5l28 17z"/>
     <path class="fil14" d="M2823 2486c5,6 2,9 3,17 6,0 30,-12 34,-16l0 -293c-7,-4 -29,-19 -35,-20 -1,26 0,52 0,78 0,71 -2,146 0,216 0,12 2,17 -3,18z"/>
     <path class="fil10" d="M2780 1927c-6,9 -3,1 -12,6 -12,6 -7,38 -8,56 0,9 -1,72 1,80 2,7 26,20 36,27 33,23 27,3 27,-43l0 -75c0,-39 3,-43 -21,-52 -9,-3 -11,-1 -22,0z"/>
     <path class="fil14" d="M2785 2457c2,3 4,3 6,5 1,1 2,1 3,2l10 7c1,1 2,1 3,2 3,2 -2,0 4,2 -2,-58 0,-119 0,-177 0,-29 0,-59 0,-88 0,-11 2,-32 0,-43 -1,-6 -6,-8 -11,-11 -4,-2 -9,-8 -14,-8l-1 309z"/>
     <path class="fil15" d="M1780 2536c3,13 13,21 26,24 17,5 30,-3 37,-11 22,-26 -10,-102 -22,-114 -11,-12 -20,14 -23,20 -7,14 -23,62 -18,81z"/>
     <path class="fil15" d="M1913 2531c4,31 40,39 61,21 20,-17 7,-58 -1,-79 -14,-40 -22,-58 -40,-22 -7,15 -24,60 -21,80z"/>
     <path class="fil15" d="M3153 2523c5,-27 -13,-79 -27,-97 -5,-6 -7,-10 -14,-2 -7,8 -13,23 -17,34 -8,24 -21,60 -4,81 18,22 56,13 61,-16z"/>
     <path class="fil10" d="M2884 2149c3,-4 2,-14 2,-19 0,-29 1,-139 -3,-151l-35 0c-2,9 -1,87 -1,103l0 38c0,12 3,8 20,20 5,4 10,9 17,9z"/>
     <path class="fil7" d="M2786 1806c12,-4 17,13 6,16 -11,3 -17,-12 -6,-16zm15 35c0,-23 7,-24 26,-37 4,-3 17,-10 17,-14 0,-3 -10,-16 -12,-19 -7,3 -18,11 -25,16 -22,15 -18,5 -29,12 -15,9 -2,27 -2,31 1,12 0,29 0,42l25 -1c2,-10 1,-20 1,-30z"/>
     <path class="fil7" d="M2763 1471c0,12 -1,18 1,20 0,0 1,0 1,0 0,0 1,0 1,0l49 0 1 -40c0,-2 0,-4 0,-6l-2 -6c-7,-2 -32,-1 -41,-1 -10,0 -11,0 -11,11 0,7 0,14 0,22z"/>
     <path class="fil10" d="M2697 2046c5,0 17,0 21,0 7,2 7,6 16,6l0 -66c-1,-10 -4,-8 -15,-8 -27,0 -23,-3 -23,22 0,14 -1,32 0,45z"/>
     <path class="fil16" d="M2625 2235c0,7 0,15 0,22l1 16c1,3 0,2 2,3 3,2 32,2 35,1 11,-3 4,-40 3,-41 -2,-2 -17,-2 -21,-2 -7,0 -14,0 -21,0z"/>
     <path class="fil15" d="M1749 2533c-6,0 -7,1 -10,5 -5,7 -9,19 -11,27 -5,30 27,38 39,22 12,-16 -13,-9 -19,-54z"/>
     <path class="fil17" d="M2330 2264c-5,-1 -25,-2 -27,1 -2,2 -2,54 0,55 2,2 24,2 26,0 3,-3 2,-49 1,-56z"/>
     <path class="fil15" d="M3206 2566c3,-14 -5,-32 -11,-40 -8,-12 -9,-5 -11,5 -4,20 -10,20 -19,33 -10,14 33,32 41,2z"/>
     <path class="fil15" d="M2016 2530c-3,6 -2,15 -5,22 -6,15 -14,19 -17,23 -5,6 7,17 17,18 40,4 21,-61 5,-63z"/>
     <polygon class="fil17" points="2429,2320 2457,2319 2456,2263 2429,2263 "/>
     <path class="fil10" d="M2624 2347c13,0 11,2 19,8 7,5 13,7 23,7 1,-15 2,-27 0,-43l-41 0 0 28z"/>
     <path class="fil15" d="M1860 2579c6,10 7,13 20,15 11,2 17,-1 23,-10 7,-12 -13,-8 -20,-43 -1,2 -1,0 -2,3l-3 9c-8,19 -16,19 -18,27z"/>
     <path class="fil18" d="M2258 2628l69 0c1,-7 2,-12 -1,-15 -7,-4 -56,-1 -68,-1l0 16z"/>
     <path class="fil18" d="M2258 2553l70 0 0 -16c-10,-1 -61,-2 -70,0l0 15z"/>
     <path class="fil16" d="M2180 2554c8,0 17,0 25,0 6,0 7,0 7,-5 0,-3 0,-9 -1,-11l-69 0 0 16 37 0z"/>
     <path class="fil18" d="M2258 2478l69 1 0 -16c-11,0 -63,-2 -70,1l0 15z"/>
     <path class="fil18" d="M2144 2478l68 0c1,-2 0,0 1,-3 0,-1 0,-2 0,-4 0,-3 0,-6 0,-9l-69 0 0 16z"/>
     <polygon class="fil18" points="2144,2628 2213,2628 2212,2612 2144,2612 "/>
     <polygon class="fil17" points="2457,2401 2457,2363 2429,2363 2429,2400 "/>
     <polygon class="fil10" points="2330,2364 2302,2363 2303,2401 2330,2401 "/>
     <path class="fil19" d="M2596 2502c0,0 1,0 1,0 0,0 1,0 1,0 0,0 1,0 1,0 1,0 1,0 2,0 17,2 17,-3 15,-21 -5,-1 -13,-2 -18,1 -5,3 -5,9 -4,15 1,4 0,2 1,3z"/>
     <path class="fil20" d="M2597 2458c2,1 17,4 19,-3 1,-2 1,-3 1,-5 0,-3 -1,-7 -1,-10 -6,0 -15,-2 -18,1 -3,3 -2,13 0,17z"/>
     <path class="fil21" d="M2658 2456c1,-2 0,1 1,-3 3,-15 -8,-15 -20,-13 -1,6 -1,13 2,16 3,2 9,2 12,1l4 -2z"/>
     <path class="fil19" d="M2657 2486c-22,-9 -21,14 -12,16 5,1 12,1 13,-6 1,-4 0,-8 -1,-11z"/>
     <path class="fil22" d="M2786 1806c-11,4 -5,19 6,16 12,-3 6,-21 -6,-16z"/>
    </g>
    <g>
     <g>
      <g>
       <path class="fil23" d="M1886 2286c1,0 0,0 1,1 -1,1 -2,1 -3,3l0 1c-1,1 -1,0 -1,3 -1,4 -1,-1 -3,3 2,1 1,0 1,1l0 0c0,0 0,0 0,0l0 1c-2,0 -1,-1 -2,1l-1 2c-2,-2 -1,-1 -2,-2 -1,-1 -1,0 -2,0l-1 1c0,-2 0,-1 0,-2 -3,2 -2,5 -11,0 -5,-2 -10,-4 -11,-5 0,1 0,1 -1,2 0,1 0,0 -1,1 2,-1 2,1 2,2 0,1 0,3 -2,3 0,0 -1,0 -1,0 -2,0 0,0 -1,-1 -1,-1 1,1 0,0 0,0 0,0 0,0l0 0c-1,-1 -1,0 -2,0 -2,0 -1,0 -4,0 0,0 0,0 0,0 -1,0 -1,0 -2,0 0,0 4,2 5,2 6,2 7,2 12,6 1,1 1,1 3,2l1 -1c1,2 0,1 2,2l0 0c1,-2 1,-3 -1,-5 -1,-2 -3,-2 -4,-4 2,-1 0,1 2,-1 1,-1 -1,-2 5,1 2,1 1,2 3,3 0,-1 0,-1 1,-2 0,1 0,3 0,4 0,2 0,1 2,2 -1,1 -2,3 -1,4 0,1 1,1 1,1 0,0 0,0 -1,0 1,1 2,1 4,1 1,0 2,-1 3,-2 1,-1 2,-5 2,-7 2,-5 5,-8 8,-11 4,-5 3,-4 7,-7 1,-1 2,-1 3,-2 6,-4 12,-3 14,-5 -4,0 -11,0 -14,1 -3,1 -9,3 -10,5z"/>
       <path class="fil23" d="M1834 2291c2,1 2,0 4,0 3,0 1,-1 5,1 1,0 0,0 2,1 0,0 1,0 2,0 1,3 -1,1 2,2 2,1 1,0 2,2 -1,0 -7,0 -10,0 -1,0 0,0 -1,0 0,0 0,0 0,0l-5 0c-1,0 -2,0 -2,-1l-1 -4c-3,1 -13,10 -14,13 1,-1 4,-4 9,-6 5,-2 9,-1 14,-1 1,0 1,0 2,0 0,0 0,0 0,0 3,0 2,1 4,0 1,0 0,-1 2,0l0 0c0,0 0,0 0,0 2,1 -1,-1 0,0 1,1 0,0 1,1 0,0 1,0 1,0 2,0 2,-2 2,-3 0,-1 0,-2 -2,-2 1,0 0,0 1,-1 0,-1 0,-1 1,-2 -3,-1 -5,-1 -9,-2l-9 1z"/>
       <path class="fil23" d="M1860 2308c1,2 6,5 9,5 2,0 1,0 1,0 -1,-1 -1,0 -1,-1 0,-1 1,-3 1,-4 -2,-1 -2,0 -2,-2 0,-1 0,-2 0,-4 -1,1 -1,1 -1,2 -2,-1 0,-2 -3,-3 -6,-3 -4,-2 -5,-1 -2,2 0,0 -2,1 1,2 3,2 4,4 2,2 2,4 1,5l0 0c-2,-2 -1,0 -2,-2l-1 1z"/>
       <path class="fil23" d="M1834 2291l-2 1 1 4c0,1 1,1 2,1l5 0c0,0 0,0 0,0 1,0 0,0 1,0 3,0 8,1 10,0 -1,-1 -1,-1 -2,-2 -3,-1 -1,1 -2,-2 0,0 -2,0 -2,0 -2,0 -1,0 -2,-1 -4,-2 -2,-1 -5,-1 -2,0 -2,0 -4,0z"/>
       <path class="fil23" d="M1874 2296c-1,2 0,0 0,2l1 -1c0,0 1,-1 2,0 1,1 0,0 2,2l1 -2c1,-2 -1,-1 2,-1l0 -1c0,0 0,0 0,0l0 0c0,-1 0,0 -1,-1 2,-3 2,1 3,-3 1,-3 0,-1 1,-3l0 -1c1,-2 2,-2 3,-3 0,-1 0,0 -1,-1 -2,0 -5,3 -6,5 -1,1 -2,2 -3,3 -1,1 -2,2 -2,3z"/>
      </g>
      <g>
       <path class="fil23" d="M1962 2129c-2,2 -15,8 -17,9l-10 7c-3,2 -13,10 -15,10 -2,0 1,-2 -4,1 0,0 0,0 0,0 -2,-2 2,0 -2,-2l0 0c0,0 0,0 0,0 2,0 3,-1 4,-3 0,0 0,0 0,0l-2 -1c0,0 0,0 0,0 4,0 4,-1 6,-2 5,-7 24,-19 33,-20 0,2 0,1 -1,1 -2,0 -4,2 -6,3 0,1 0,1 1,2l1 2c3,0 5,-2 7,-3 4,-1 4,-2 7,-2z"/>
       <path class="fil23" d="M1892 2140c2,0 5,1 7,2 2,1 5,1 6,3 -1,0 -5,0 -5,-1 -3,3 2,1 4,3 0,0 0,0 0,0 3,3 1,1 4,2 -2,0 -1,0 -2,1 3,0 1,-1 5,0l1 0c0,0 0,0 0,0 0,1 0,1 -1,2l-4 -2c0,0 0,0 0,0 0,0 0,0 0,0 0,0 0,0 0,0 0,0 0,0 0,0 -1,-1 -5,-3 -8,-3 -1,0 -1,0 -2,-1 -4,-2 -12,-3 -16,-4 0,0 0,0 0,0l-1 -1c0,0 0,0 0,0 0,0 0,0 0,0 -3,0 1,0 -5,0 0,-1 -1,-1 1,-2 1,-1 6,-1 8,-1 7,-1 5,1 9,0z"/>
       <path class="fil23" d="M1968 2127c-2,1 -4,2 -6,2 -4,0 -3,1 -7,2 -2,0 -5,3 -7,3l-1 -2c0,-1 0,-1 -1,-2 2,-1 4,-3 6,-3 0,0 1,1 1,-1l9 -1c1,0 2,1 2,1 0,0 5,-2 5,1 0,0 0,0 0,0l0 1z"/>
       <path class="fil23" d="M1892 2140c-4,1 -2,-1 -9,0 -2,0 -7,0 -8,1 -2,1 -1,0 -1,2 6,0 2,1 5,0 0,0 0,0 0,0 0,0 0,0 0,0l1 1c0,0 0,0 0,0 -3,0 -11,1 -13,-1 1,-4 21,-7 24,-3z"/>
       <path class="fil23" d="M1905 2144c2,0 7,3 8,5 0,0 0,0 0,0l2 1c0,0 0,0 0,0 -1,2 -2,2 -4,3 0,-1 1,-1 1,-2 0,0 0,0 0,0l-1 0c-4,-2 -2,0 -5,0 1,-2 0,-1 2,-1 -4,-2 -1,1 -4,-2 0,0 0,0 0,0 -2,-2 -6,0 -4,-3 0,1 4,1 5,1z"/>
       <path class="fil23" d="M1912 2153c0,0 0,0 0,0l0 0c4,2 0,0 2,2 0,0 0,0 0,0 6,-3 3,-1 4,-1 -3,3 -7,1 -10,-1 -2,-1 -8,-4 -9,-6 2,0 6,2 8,3 0,0 0,0 0,0 0,0 0,0 0,0 0,0 0,0 0,0 0,0 0,0 0,0l4 2z"/>
       <path class="fil23" d="M1968 2127l0 -1c0,0 0,0 0,0 0,-3 -5,-1 -5,-1 0,0 -2,-1 -2,-1 1,0 0,0 1,0l4 0c4,0 10,-1 13,2l-11 1z"/>
      </g>
      <g>
       <path class="fil23" d="M2089 2174c3,1 3,-1 2,0l2 2c1,2 0,0 0,1l-6 0c0,-3 3,1 1,-3zm26 -18c-3,0 -11,4 -13,5 -2,1 -3,3 -5,4 -2,2 -3,3 -5,4l0 2c-2,-1 -1,0 -4,-1 0,0 0,0 0,0 0,0 0,0 0,0 0,1 -1,1 -2,1 1,1 0,0 0,2 -2,1 0,0 -4,1 -1,0 1,0 -1,0 -1,0 0,-1 -2,0l2 3c-1,1 0,0 -2,1 3,0 12,1 14,0 1,-1 7,-6 8,-7 3,-4 2,-2 6,-5l6 -5c2,-2 1,-1 4,-2l3 -2c1,-1 0,0 1,0 0,0 -1,0 0,-2 -3,0 1,1 -3,1 -3,0 -2,0 -4,0z"/>
       <path class="fil23" d="M2115 2155c2,1 1,0 4,0 5,0 0,-1 3,-1 -1,1 0,2 0,2 -1,0 0,-1 -1,0l-3 2c-3,1 -2,0 -4,2l-6 5c-4,3 -2,1 -6,5 11,-6 2,-3 19,-9 14,-5 12,-2 24,-4 -4,-4 -22,-6 -29,-3 -2,1 -1,0 -1,1z"/>
       <path class="fil23" d="M2045 2189c0,1 0,1 1,1l1 -1c3,-5 0,-1 6,-3l3 -2c-2,0 -2,0 -3,-1 1,-1 -1,0 1,-1l3 -2 0 -2c1,0 -1,0 1,0 2,0 2,-1 4,0 -1,-4 0,0 -1,-2 1,-1 1,-1 1,-1l1 -1c2,-1 1,-1 2,0 0,0 0,0 0,0 0,0 0,0 0,0 2,0 1,-1 2,-1 0,0 1,0 2,0 1,-1 0,-1 0,-1l3 1c1,-2 0,0 0,-2 2,1 4,0 6,1 1,0 1,0 2,0 2,0 1,0 3,-1 1,0 3,0 4,0 1,0 1,0 2,-1 0,0 0,0 0,0 0,0 0,0 0,0 3,2 1,1 4,1l0 -2c-4,1 -15,-5 -31,2 -4,2 -8,5 -11,8 -1,1 -7,10 -7,11z"/>
       <path class="fil23" d="M2055 2181c2,-1 1,-1 2,-2l1 2c0,0 0,0 0,0 2,-1 0,0 2,-1 2,-1 0,0 2,0 2,0 5,-1 7,-2 1,-1 1,-1 2,-2l1 -1c0,0 0,0 0,0l-4 0c0,-2 0,-1 1,-2 3,1 0,1 2,0 2,0 4,1 3,-2 0,-2 0,0 0,0 1,0 0,0 2,1l2 -1c-3,-1 -4,0 -6,-1 0,2 1,0 0,2l-3 -1c0,0 1,0 0,1 -1,0 -2,0 -2,0 -1,0 0,2 -2,1 0,0 0,0 0,0 0,0 0,0 0,0 -1,0 0,-1 -2,0l-1 1c0,0 0,0 -1,1 1,2 0,-2 1,2 -2,-1 -2,0 -4,0 -2,0 1,0 -1,0l0 2z"/>
       <path class="fil23" d="M2055 2181l-3 2c-2,1 0,-1 -1,1 1,1 1,1 3,1l-3 2c-5,3 -2,-2 -6,3l-1 1c-1,0 0,0 -1,-1 -1,0 0,0 -1,1 -1,1 -2,5 -2,6 2,0 6,-5 10,-8 6,-5 4,-3 10,-7 1,-1 1,0 1,-1 -2,-1 0,-1 -2,0 -2,1 0,0 -2,1 0,0 0,0 0,0l-1 -2c-1,1 0,1 -2,2z"/>
       <path class="fil23" d="M2069 2179l8 -2c-1,-1 0,0 -1,-2 1,0 2,0 2,1l1 -2c-2,0 -1,1 -2,-1 1,0 1,0 2,-2 -1,0 -1,0 -2,0l-2 1c-2,-1 -1,-1 -2,-1 0,0 0,-2 0,0 0,3 -1,2 -3,2 -2,0 0,0 -2,0 -1,1 -1,0 -1,2l4 0c0,0 0,0 0,0l-1 1c-1,1 -1,0 -2,2z"/>
       <path class="fil23" d="M2080 2171c-1,2 -1,1 -2,2 1,2 -1,1 2,1l-1 2c0,0 -1,-1 -2,-1 0,1 0,1 1,2l4 0c2,-1 1,0 2,-1l-2 -3c2,-1 1,0 2,0 2,1 0,1 1,0 3,-1 1,0 4,-1 0,-1 0,-1 0,-2 -1,0 -3,0 -4,0 -2,0 -1,1 -3,1z"/>
       <path class="fil23" d="M2093 2176c0,-1 1,1 0,-1l-2 -2c1,0 0,1 -2,0 1,3 -1,0 -1,3l6 0z"/>
      </g>
     </g>
     <g>
      <g>
       <path class="fil24" d="M2388 1811c-2,1 -6,4 -6,6 6,-1 6,-3 16,-2 10,1 14,5 20,6 4,1 8,4 11,7 2,2 1,4 5,5l0 -1c0,0 0,0 0,0 -1,-2 -2,-4 -2,-7l1 1c0,1 0,0 1,1 0,0 0,0 0,0l0 1c1,2 0,-1 0,1 2,-2 -1,-2 2,-1 3,0 1,1 0,2l2 0c-1,-1 -1,0 -1,-1 0,-1 -1,0 1,-2 1,1 1,1 2,2 2,-2 -1,-1 3,-2 3,0 2,0 4,-1 2,-1 9,-2 12,-1 0,0 0,0 0,0l4 1c3,0 0,-1 3,0 1,1 2,0 2,0 1,0 0,-1 1,0 3,0 0,0 2,-1 -18,-6 -30,4 -33,-1 -1,-2 -2,-3 -4,-5l-10 -6c-1,1 2,1 -1,1 -2,-2 -8,-3 -11,-3 -3,0 -2,-1 -4,-1 0,1 0,2 -1,3 -1,-1 0,0 0,-1 0,0 1,-1 -2,-2 -2,1 0,1 -3,1 -3,1 -2,0 -2,2 -1,-1 0,-1 -4,-1l-1 0c0,0 0,0 -1,0 -1,0 -2,-1 -3,0l-3 1c1,-1 1,-1 1,-2z"/>
       <path class="fil24" d="M2432 1833c1,1 3,2 6,2 1,0 2,-1 3,-1 1,0 2,-1 3,-1 5,-1 10,-1 15,-2 11,-1 23,6 26,7 0,-4 -13,-11 -18,-12 -1,1 2,1 -2,1 -1,-1 0,0 -1,0 0,0 -1,0 -2,0 -3,-1 1,0 -3,0l-4 -1c0,0 0,0 0,0 -3,-1 -10,0 -12,1 -2,1 -1,1 -4,1 -4,1 -1,0 -3,2 -1,0 -1,-1 -2,-2 -1,2 -1,0 -1,2 0,1 0,0 1,1l-2 0c0,0 2,-1 0,-2 -3,0 0,0 -2,1 -1,-2 1,1 0,-1l0 -1c0,0 0,0 0,0 0,-1 0,0 -1,-1l-1 -1c-1,3 1,4 2,7 0,0 0,0 0,0l0 1z"/>
       <path class="fil24" d="M2388 1811c0,1 0,1 -1,2l3 -1c1,-1 2,0 3,0 0,0 0,0 1,0l1 0c4,0 3,0 4,1 1,-2 0,-1 2,-2 3,-1 1,0 3,-1 2,2 2,2 2,2 0,1 -1,0 0,1 0,-1 1,-2 1,-3 1,0 1,1 4,1 3,0 9,1 11,3 3,0 0,0 1,-1 -4,-3 -10,-5 -16,-6 -5,-1 -15,0 -18,3z"/>
      </g>
      <g>
       <path class="fil24" d="M2280 1958c1,2 4,7 9,6 2,0 2,-1 3,-2 2,-3 5,-6 7,-8 3,-3 4,-4 10,-5 5,-1 16,-2 21,0 3,1 4,1 7,1 0,0 0,0 0,0l-1 -1c-1,-1 0,0 -1,-1l1 -2c2,1 0,0 1,0 1,0 0,0 1,0 0,0 0,-1 1,-1l-1 0c-1,0 0,0 -1,0 -2,-1 -4,-1 -6,-2 -5,-1 -22,-1 -27,1 -1,0 -1,0 -1,1l1 0c-4,1 2,0 -3,2 -1,1 -2,2 -4,2 0,0 0,1 0,1 -1,2 -1,1 -2,2 -1,1 0,2 -3,2 0,2 1,1 0,2 -1,-1 0,-1 -1,-1l-1 1c-1,1 -1,1 -1,1l-1 -3c-1,0 -1,0 -1,1 0,1 -1,2 -1,2 0,0 1,0 1,0l1 1c-4,0 0,1 -3,1 -2,0 -1,0 -3,-2 0,0 -1,1 -1,-1 0,-2 0,-1 1,-1 -2,-2 -3,-3 -4,-5 -8,-10 -15,-17 -29,-16 -3,0 -12,3 -13,5 1,0 0,0 1,1 4,1 9,0 13,1 5,1 7,3 10,5 4,2 7,3 10,6 3,3 4,6 7,9z"/>
       <path class="fil24" d="M2290 1953l1 3c1,0 1,-1 1,-1l1 -1c1,1 0,0 1,1 1,-1 0,0 0,-2 2,0 1,-1 3,-2 1,-1 1,0 2,-2 0,0 0,-1 0,-1 1,1 2,-1 4,-2 5,-3 -1,-2 3,-2l-1 0c-5,0 -14,7 -15,10z"/>
       <path class="fil24" d="M2289 1953c-3,1 -3,1 -5,-1 -1,1 -1,-1 -1,1 -1,3 1,1 1,1 2,2 1,3 3,2 3,0 -1,-1 3,-1l-1 -1c0,0 -1,0 -1,0 0,0 0,-1 1,-2z"/>
       <path class="fil24" d="M2339 1948c2,0 3,-1 4,-2 -1,-1 -1,-1 -2,-2 -1,0 -1,0 -1,1 -1,0 0,0 -1,0 -1,-1 1,0 -1,0l-1 2c0,1 0,0 1,1l1 1c0,0 0,0 0,0z"/>
      </g>
      <g>
       <path class="fil24" d="M2241 1742c-1,0 0,0 -1,1 1,1 2,1 3,3l0 1c1,1 1,0 1,3 1,4 1,-1 3,3 -2,1 -1,0 -1,1l0 0c0,0 0,0 0,0l0 1c2,0 1,-1 2,1l1 2c2,-2 1,-1 2,-2 1,-1 1,0 2,0l1 1c0,-2 0,-1 0,-2 3,2 2,5 11,0 5,-2 10,-4 11,-5 0,1 0,1 1,2 0,1 0,0 1,1 -2,-1 -2,1 -2,2 0,1 0,3 2,3 0,0 1,0 1,0 2,0 0,0 1,-1 1,-1 -1,1 0,0 0,0 0,0 0,0l0 0c1,-1 1,0 2,0 2,0 1,0 4,0 0,0 0,0 0,0 1,0 1,0 2,0 0,0 -4,2 -5,2 -6,2 -7,2 -12,6 -1,1 -1,1 -3,2l-1 -1c-1,2 0,1 -2,2l0 0c-1,-2 -1,-3 1,-5 1,-2 3,-2 4,-4 -2,-1 0,1 -2,-1 -1,-1 1,-2 -5,1 -2,1 -1,2 -3,3 0,-1 0,-1 -1,-2 0,1 0,3 0,4 0,2 0,1 -2,2 1,1 2,3 1,4 0,1 -1,1 -1,1 0,0 0,0 1,0 -1,1 -2,1 -4,1 -1,0 -2,-1 -3,-2 -1,-1 -2,-5 -2,-7 -2,-5 -5,-8 -8,-11 -4,-5 -3,-4 -7,-7 -1,-1 -2,-1 -3,-2 -6,-4 -12,-3 -14,-5 4,0 11,0 14,1 3,1 9,3 10,5z"/>
       <path class="fil24" d="M2294 1747c-2,1 -2,0 -4,0 -3,0 -1,-1 -5,1 -1,0 0,0 -2,1 0,0 -1,0 -2,0 -1,3 1,1 -2,2 -2,1 -1,0 -2,2 1,0 7,0 10,0 1,0 0,0 1,0 0,0 0,0 0,0l5 0c1,0 2,0 2,-1l1 -4c3,1 13,10 14,13 -1,-1 -4,-4 -9,-6 -5,-2 -9,-1 -14,-1 -1,0 -1,0 -2,0 0,0 0,0 0,0 -3,0 -2,1 -4,0 -1,0 0,-1 -2,0l0 0c0,0 0,0 0,0 -2,1 1,-1 0,0 -1,1 0,0 -1,1 0,0 -1,0 -1,0 -2,0 -2,-2 -2,-3 0,-1 0,-2 2,-2 -1,0 0,0 -1,-1 0,-1 0,-1 -1,-2 3,-1 5,-1 9,-2l9 1z"/>
       <path class="fil24" d="M2267 1764c-1,2 -6,5 -9,5 -2,0 -1,0 -1,0 1,-1 1,0 1,-1 0,-1 -1,-3 -1,-4 2,-1 2,0 2,-2 0,-1 0,-2 0,-4 1,1 1,1 1,2 2,-1 0,-2 3,-3 6,-3 4,-2 5,-1 2,2 0,0 2,1 -1,2 -3,2 -4,4 -2,2 -2,4 -1,5l0 0c2,-2 1,0 2,-2l1 1z"/>
       <path class="fil24" d="M2294 1747l2 1 -1 4c0,1 -1,1 -2,1l-5 0c0,0 0,0 0,0 -1,0 0,0 -1,0 -3,0 -8,1 -10,0 1,-1 1,-1 2,-2 3,-1 1,1 2,-2 0,0 2,0 2,0 2,0 1,0 2,-1 4,-2 2,-1 5,-1 2,0 2,0 4,0z"/>
       <path class="fil24" d="M2253 1752c1,2 0,0 0,2l-1 -1c0,0 -1,-1 -2,0 -1,1 0,0 -2,2l-1 -2c-1,-2 1,-1 -2,-1l0 -1c0,0 0,0 0,0l0 0c0,-1 0,0 1,-1 -2,-3 -2,1 -3,-3 -1,-3 0,-1 -1,-3l0 -1c-1,-2 -2,-2 -3,-3 0,-1 0,0 1,-1 2,0 5,3 6,5 1,1 2,2 3,3 1,1 2,2 2,3z"/>
      </g>
     </g>
    </g>
   </g>
  </g>
 </g>
</svg>
